<mxfile host="app.diagrams.net" modified="2023-04-10T07:05:30.841Z" agent="Mozilla/5.0 (Windows NT 10.0; Win64; x64) AppleWebKit/537.36 (KHTML, like Gecko) Chrome/111.0.0.0 Safari/537.36" etag="_11Lh9NmQZ0rDaYOP7-T" version="21.1.1" type="device" pages="3">
  <diagram id="3ZcY1S7_rm4KTZ8mV9sZ" name="Page-1">
    <mxGraphModel dx="2134" dy="1756" grid="1" gridSize="1" guides="1" tooltips="1" connect="1" arrows="1" fold="1" page="1" pageScale="1" pageWidth="700" pageHeight="1000" background="#ffffff" math="0" shadow="0">
      <root>
        <mxCell id="0" />
        <mxCell id="1" parent="0" />
        <mxCell id="_CqftB7TEk2AvOw6r1CB-18" value="" style="rounded=1;whiteSpace=wrap;html=1;labelBackgroundColor=#FFB570;strokeColor=#CDEEFE;fontColor=#99FF99;fillColor=#FFFFFF;" parent="1" vertex="1">
          <mxGeometry x="-51" y="84" width="1210" height="593" as="geometry" />
        </mxCell>
        <mxCell id="O2Ps_1vDSCaNEWxH-Twj-2" value="" style="ellipse;whiteSpace=wrap;html=1;aspect=fixed;fillColor=#b1ddf0;strokeColor=#10739e;" parent="1" vertex="1">
          <mxGeometry x="350" y="910" width="190" height="190" as="geometry" />
        </mxCell>
        <mxCell id="O2Ps_1vDSCaNEWxH-Twj-1" value="" style="ellipse;whiteSpace=wrap;html=1;aspect=fixed;fillColor=#b1ddf0;strokeColor=#10739e;" parent="1" vertex="1">
          <mxGeometry x="90" y="910" width="190" height="190" as="geometry" />
        </mxCell>
        <mxCell id="cEsDTuAmLdQw-phlZl-9-11" value="" style="html=1;verticalLabelPosition=bottom;align=center;labelBackgroundColor=#ffffff;verticalAlign=top;strokeWidth=2;shadow=0;dashed=0;shape=mxgraph.ios7.icons.documents;fillStyle=solid;" parent="1" vertex="1">
          <mxGeometry x="411.56" y="958.75" width="66.87" height="74.25" as="geometry" />
        </mxCell>
        <mxCell id="282unPw8FLJoIN8Rm7A3-2" value="" style="html=1;verticalLabelPosition=bottom;align=center;labelBackgroundColor=#ffffff;verticalAlign=top;strokeWidth=2;strokeColor=#333333;shadow=0;dashed=0;shape=mxgraph.ios7.icons.documents;" parent="1" vertex="1">
          <mxGeometry x="156.75" y="965.5" width="60.5" height="70" as="geometry" />
        </mxCell>
        <mxCell id="282unPw8FLJoIN8Rm7A3-42" value="" style="verticalLabelPosition=bottom;html=1;verticalAlign=top;align=center;strokeColor=none;fillColor=#333333;shape=mxgraph.azure.sql_reporting;strokeWidth=5;" parent="1" vertex="1">
          <mxGeometry x="159.25" y="980.88" width="40" height="50" as="geometry" />
        </mxCell>
        <mxCell id="282unPw8FLJoIN8Rm7A3-47" value="&lt;font style=&quot;font-size: 16px;&quot; color=&quot;#333333&quot;&gt;&lt;b&gt;Twitter Dataset&lt;br&gt;&lt;/b&gt;&lt;br&gt;&lt;/font&gt;" style="text;html=1;strokeColor=none;fillColor=none;align=center;verticalAlign=middle;whiteSpace=wrap;rounded=0;sketch=0;strokeWidth=3;fontColor=#99FFCC;shadow=1;" parent="1" vertex="1">
          <mxGeometry x="127" y="1060" width="116" height="30" as="geometry" />
        </mxCell>
        <mxCell id="282unPw8FLJoIN8Rm7A3-48" value="&lt;font style=&quot;font-size: 16px;&quot; color=&quot;#333333&quot;&gt;&lt;b&gt;Preprocessing&lt;/b&gt;&lt;b style=&quot;&quot;&gt;&amp;nbsp;&amp;amp; Cleaning&amp;nbsp;&lt;/b&gt;&lt;br&gt;&lt;/font&gt;" style="text;html=1;align=center;verticalAlign=middle;whiteSpace=wrap;rounded=0;sketch=0;strokeWidth=3;" parent="1" vertex="1">
          <mxGeometry x="387" y="1050.5" width="116" height="30" as="geometry" />
        </mxCell>
        <mxCell id="O2Ps_1vDSCaNEWxH-Twj-3" value="" style="ellipse;whiteSpace=wrap;html=1;aspect=fixed;fillColor=#b1ddf0;strokeColor=#10739e;" parent="1" vertex="1">
          <mxGeometry x="610" y="904.88" width="190" height="190" as="geometry" />
        </mxCell>
        <mxCell id="O2Ps_1vDSCaNEWxH-Twj-4" value="" style="ellipse;whiteSpace=wrap;html=1;aspect=fixed;fillColor=#b1ddf0;strokeColor=#10739e;" parent="1" vertex="1">
          <mxGeometry x="870" y="899.5" width="190" height="190" as="geometry" />
        </mxCell>
        <mxCell id="O2Ps_1vDSCaNEWxH-Twj-5" value="" style="ellipse;whiteSpace=wrap;html=1;aspect=fixed;fillColor=#B1DDF0;strokeColor=#10739e;" parent="1" vertex="1">
          <mxGeometry x="1130" y="900" width="190" height="190" as="geometry" />
        </mxCell>
        <mxCell id="O2Ps_1vDSCaNEWxH-Twj-6" value="" style="endArrow=classic;html=1;rounded=0;strokeWidth=3;" parent="1" edge="1">
          <mxGeometry width="50" height="50" relative="1" as="geometry">
            <mxPoint x="286.5" y="1000.25" as="sourcePoint" />
            <mxPoint x="340" y="1001" as="targetPoint" />
          </mxGeometry>
        </mxCell>
        <mxCell id="O2Ps_1vDSCaNEWxH-Twj-7" value="" style="dashed=0;outlineConnect=0;html=1;align=center;labelPosition=center;verticalLabelPosition=bottom;verticalAlign=top;shape=mxgraph.weblogos.twitter;fillColor=#1DA1F2;strokeColor=none" parent="1" vertex="1">
          <mxGeometry x="209" y="943.5" width="25.75" height="21.25" as="geometry" />
        </mxCell>
        <mxCell id="O2Ps_1vDSCaNEWxH-Twj-9" value="" style="shape=image;html=1;verticalAlign=top;verticalLabelPosition=bottom;labelBackgroundColor=#ffffff;imageAspect=0;aspect=fixed;image=https://cdn0.iconfinder.com/data/icons/phosphor-thin-vol-1/256/brackets-curly-thin-128.png;strokeWidth=0;" parent="1" vertex="1">
          <mxGeometry x="642" y="940" width="125" height="125" as="geometry" />
        </mxCell>
        <mxCell id="O2Ps_1vDSCaNEWxH-Twj-10" value="" style="points=[[0,0,0],[0.25,0,0],[0.5,0,0],[0.75,0,0],[1,0,0],[0,1,0],[0.25,1,0],[0.5,1,0],[0.75,1,0],[1,1,0],[0,0.25,0],[0,0.5,0],[0,0.75,0],[1,0.25,0],[1,0.5,0],[1,0.75,0]];outlineConnect=0;fontColor=#232F3E;gradientColor=none;gradientDirection=north;fillColor=none;strokeColor=#333333;dashed=0;verticalLabelPosition=bottom;verticalAlign=top;align=center;html=1;fontSize=12;fontStyle=0;aspect=fixed;shape=mxgraph.aws4.resourceIcon;resIcon=mxgraph.aws4.deep_learning_amis;strokeWidth=0;" parent="1" vertex="1">
          <mxGeometry x="656" y="955.88" width="90.12" height="90.12" as="geometry" />
        </mxCell>
        <mxCell id="O2Ps_1vDSCaNEWxH-Twj-11" value="&lt;b style=&quot;border-color: var(--border-color); color: rgb(51, 51, 51);&quot;&gt;&lt;font style=&quot;font-size: 16px;&quot;&gt;ML Models&lt;/font&gt;&lt;/b&gt;&lt;font style=&quot;font-size: 12px;&quot; color=&quot;#333333&quot;&gt;&lt;br&gt;&lt;/font&gt;" style="text;html=1;strokeColor=none;fillColor=none;align=center;verticalAlign=middle;whiteSpace=wrap;rounded=0;sketch=0;strokeWidth=3;fontColor=#99FFCC;" parent="1" vertex="1">
          <mxGeometry x="646.5" y="1050.5" width="123.5" height="39.5" as="geometry" />
        </mxCell>
        <mxCell id="O2Ps_1vDSCaNEWxH-Twj-12" value="" style="endArrow=classic;html=1;rounded=0;strokeWidth=3;" parent="1" edge="1">
          <mxGeometry width="50" height="50" relative="1" as="geometry">
            <mxPoint x="547.5" y="999.25" as="sourcePoint" />
            <mxPoint x="601" y="1000" as="targetPoint" />
          </mxGeometry>
        </mxCell>
        <mxCell id="O2Ps_1vDSCaNEWxH-Twj-15" value="" style="endArrow=classic;html=1;rounded=0;strokeWidth=3;" parent="1" edge="1">
          <mxGeometry width="50" height="50" relative="1" as="geometry">
            <mxPoint x="807.75" y="998.5" as="sourcePoint" />
            <mxPoint x="861.25" y="999.25" as="targetPoint" />
          </mxGeometry>
        </mxCell>
        <mxCell id="O2Ps_1vDSCaNEWxH-Twj-22" value="" style="sketch=0;aspect=fixed;pointerEvents=1;shadow=0;dashed=0;html=1;strokeColor=default;labelPosition=center;verticalLabelPosition=bottom;verticalAlign=top;align=center;fillColor=none;shape=mxgraph.mscae.general.graph;fillStyle=auto;strokeWidth=2;" parent="1" vertex="1">
          <mxGeometry x="934" y="963" width="70" height="70" as="geometry" />
        </mxCell>
        <mxCell id="O2Ps_1vDSCaNEWxH-Twj-23" value="&lt;font style=&quot;&quot; color=&quot;#333333&quot;&gt;&lt;b style=&quot;&quot;&gt;&lt;font style=&quot;font-size: 16px;&quot;&gt;Compare Results&lt;/font&gt;&lt;/b&gt;&lt;br&gt;&lt;/font&gt;" style="text;html=1;strokeColor=none;fillColor=none;align=center;verticalAlign=middle;whiteSpace=wrap;rounded=0;sketch=0;strokeWidth=3;fontColor=#99FFCC;" parent="1" vertex="1">
          <mxGeometry x="911" y="1050" width="116" height="30" as="geometry" />
        </mxCell>
        <mxCell id="O2Ps_1vDSCaNEWxH-Twj-24" value="" style="endArrow=classic;html=1;rounded=0;strokeWidth=3;" parent="1" edge="1">
          <mxGeometry width="50" height="50" relative="1" as="geometry">
            <mxPoint x="1069.75" y="1000.5" as="sourcePoint" />
            <mxPoint x="1123.25" y="1001.25" as="targetPoint" />
          </mxGeometry>
        </mxCell>
        <mxCell id="O2Ps_1vDSCaNEWxH-Twj-25" value="" style="sketch=0;points=[[0,0,0],[0.25,0,0],[0.5,0,0],[0.75,0,0],[1,0,0],[0,1,0],[0.25,1,0],[0.5,1,0],[0.75,1,0],[1,1,0],[0,0.25,0],[0,0.5,0],[0,0.75,0],[1,0.25,0],[1,0.5,0],[1,0.75,0]];outlineConnect=0;fontColor=#232F3E;gradientColor=#4AB29A;gradientDirection=north;fillColor=none;strokeColor=#333333;dashed=0;verticalLabelPosition=bottom;verticalAlign=top;align=center;html=1;fontSize=12;fontStyle=0;aspect=fixed;shape=mxgraph.aws4.resourceIcon;resIcon=mxgraph.aws4.comprehend;strokeWidth=5;" parent="1" vertex="1">
          <mxGeometry x="1180.5" y="949.94" width="106.06" height="106.06" as="geometry" />
        </mxCell>
        <mxCell id="O2Ps_1vDSCaNEWxH-Twj-26" value="&lt;font style=&quot;&quot; color=&quot;#333333&quot;&gt;&lt;b&gt;&lt;font style=&quot;font-size: 16px;&quot;&gt;Explanation&lt;/font&gt;&lt;/b&gt;&lt;br&gt;&lt;/font&gt;" style="text;html=1;strokeColor=none;fillColor=none;align=center;verticalAlign=middle;whiteSpace=wrap;rounded=0;sketch=0;strokeWidth=3;fontColor=#99FFCC;" parent="1" vertex="1">
          <mxGeometry x="1167" y="1050" width="116" height="30" as="geometry" />
        </mxCell>
        <mxCell id="O2Ps_1vDSCaNEWxH-Twj-28" value="" style="shape=image;html=1;verticalAlign=top;verticalLabelPosition=bottom;labelBackgroundColor=#ffffff;imageAspect=0;aspect=fixed;image=https://cdn4.iconfinder.com/data/icons/evil-icons-user-interface/64/setting-128.png;sketch=0;fillStyle=auto;strokeColor=default;strokeWidth=2;fillColor=none;" parent="1" vertex="1">
          <mxGeometry x="440" y="991" width="25" height="25" as="geometry" />
        </mxCell>
        <mxCell id="O2Ps_1vDSCaNEWxH-Twj-29" value="" style="shape=image;html=1;verticalAlign=top;verticalLabelPosition=bottom;labelBackgroundColor=#ffffff;imageAspect=0;aspect=fixed;image=https://cdn4.iconfinder.com/data/icons/evil-icons-user-interface/64/setting-128.png;sketch=0;fillStyle=auto;strokeColor=default;strokeWidth=2;fillColor=none;" parent="1" vertex="1">
          <mxGeometry x="410" y="968" width="42" height="42" as="geometry" />
        </mxCell>
        <mxCell id="L2uhkk1yuC7J8T29KFnI-1" value="" style="ellipse;whiteSpace=wrap;html=1;aspect=fixed;fillColor=#b1ddf0;strokeColor=#10739e;" parent="1" vertex="1">
          <mxGeometry x="321" y="145" width="229" height="229" as="geometry" />
        </mxCell>
        <mxCell id="L2uhkk1yuC7J8T29KFnI-2" value="" style="ellipse;whiteSpace=wrap;html=1;aspect=fixed;fillColor=#b1ddf0;strokeColor=#10739e;" parent="1" vertex="1">
          <mxGeometry x="25" y="142" width="222" height="222" as="geometry" />
        </mxCell>
        <mxCell id="L2uhkk1yuC7J8T29KFnI-3" value="" style="html=1;verticalLabelPosition=bottom;align=center;labelBackgroundColor=#ffffff;verticalAlign=top;strokeWidth=2;shadow=0;dashed=0;shape=mxgraph.ios7.icons.documents;fillStyle=solid;" parent="1" vertex="1">
          <mxGeometry x="398.56" y="191" width="66.87" height="74.25" as="geometry" />
        </mxCell>
        <mxCell id="L2uhkk1yuC7J8T29KFnI-4" value="" style="html=1;verticalLabelPosition=bottom;align=center;labelBackgroundColor=#ffffff;verticalAlign=top;strokeWidth=2;strokeColor=#333333;shadow=0;dashed=0;shape=mxgraph.ios7.icons.documents;direction=south;" parent="1" vertex="1">
          <mxGeometry x="89.25" y="207" width="74.75" height="73" as="geometry" />
        </mxCell>
        <mxCell id="L2uhkk1yuC7J8T29KFnI-5" value="" style="verticalLabelPosition=bottom;html=1;verticalAlign=top;align=center;strokeColor=none;fillColor=#333333;shape=mxgraph.azure.sql_reporting;strokeWidth=5;" parent="1" vertex="1">
          <mxGeometry x="99.25" y="210.0000000000001" width="40" height="50" as="geometry" />
        </mxCell>
        <mxCell id="L2uhkk1yuC7J8T29KFnI-6" value="&lt;font style=&quot;font-size: 16px;&quot; color=&quot;#333333&quot;&gt;&lt;b&gt;Twitter Dataset&lt;br&gt;&lt;/b&gt;&lt;br&gt;&lt;/font&gt;" style="text;html=1;strokeColor=none;fillColor=none;align=center;verticalAlign=middle;whiteSpace=wrap;rounded=0;sketch=0;strokeWidth=3;fontColor=#99FFCC;shadow=1;" parent="1" vertex="1">
          <mxGeometry x="73" y="291.12" width="116" height="30" as="geometry" />
        </mxCell>
        <mxCell id="L2uhkk1yuC7J8T29KFnI-7" value="&lt;font style=&quot;font-size: 16px;&quot; color=&quot;#333333&quot;&gt;&lt;b&gt;Preprocessing&lt;/b&gt;&lt;b style=&quot;&quot;&gt;&amp;nbsp;&amp;amp; Cleaning&amp;nbsp;&lt;/b&gt;&lt;br&gt;&lt;/font&gt;" style="text;html=1;align=center;verticalAlign=middle;whiteSpace=wrap;rounded=0;sketch=0;strokeWidth=3;" parent="1" vertex="1">
          <mxGeometry x="374" y="282.75" width="116" height="30" as="geometry" />
        </mxCell>
        <mxCell id="L2uhkk1yuC7J8T29KFnI-8" value="" style="ellipse;whiteSpace=wrap;html=1;aspect=fixed;fillColor=#b1ddf0;strokeColor=#10739e;" parent="1" vertex="1">
          <mxGeometry x="628" y="127.97" width="217.06" height="217.06" as="geometry" />
        </mxCell>
        <mxCell id="L2uhkk1yuC7J8T29KFnI-9" value="" style="ellipse;whiteSpace=wrap;html=1;aspect=fixed;fillColor=#b1ddf0;strokeColor=#10739e;" parent="1" vertex="1">
          <mxGeometry x="321" y="408" width="227" height="227" as="geometry" />
        </mxCell>
        <mxCell id="L2uhkk1yuC7J8T29KFnI-10" value="" style="ellipse;whiteSpace=wrap;html=1;aspect=fixed;fillColor=#B1DDF0;strokeColor=#10739e;" parent="1" vertex="1">
          <mxGeometry x="632" y="406" width="217" height="217" as="geometry" />
        </mxCell>
        <mxCell id="L2uhkk1yuC7J8T29KFnI-11" value="" style="endArrow=classic;html=1;rounded=0;strokeWidth=3;" parent="1" edge="1">
          <mxGeometry width="50" height="50" relative="1" as="geometry">
            <mxPoint x="254" y="245" as="sourcePoint" />
            <mxPoint x="307.5" y="245.75" as="targetPoint" />
          </mxGeometry>
        </mxCell>
        <mxCell id="L2uhkk1yuC7J8T29KFnI-12" value="" style="dashed=0;outlineConnect=0;html=1;align=center;labelPosition=center;verticalLabelPosition=bottom;verticalAlign=top;shape=mxgraph.weblogos.twitter;fillColor=#1DA1F2;strokeColor=none" parent="1" vertex="1">
          <mxGeometry x="146" y="180.75" width="25.75" height="21.25" as="geometry" />
        </mxCell>
        <mxCell id="L2uhkk1yuC7J8T29KFnI-13" value="" style="shape=image;html=1;verticalAlign=top;verticalLabelPosition=bottom;labelBackgroundColor=#ffffff;imageAspect=0;aspect=fixed;image=https://cdn0.iconfinder.com/data/icons/phosphor-thin-vol-1/256/brackets-curly-thin-128.png;strokeWidth=0;" parent="1" vertex="1">
          <mxGeometry x="672" y="173" width="125" height="125" as="geometry" />
        </mxCell>
        <mxCell id="L2uhkk1yuC7J8T29KFnI-14" value="" style="points=[[0,0,0],[0.25,0,0],[0.5,0,0],[0.75,0,0],[1,0,0],[0,1,0],[0.25,1,0],[0.5,1,0],[0.75,1,0],[1,1,0],[0,0.25,0],[0,0.5,0],[0,0.75,0],[1,0.25,0],[1,0.5,0],[1,0.75,0]];outlineConnect=0;fontColor=#232F3E;gradientColor=none;gradientDirection=north;fillColor=none;strokeColor=#333333;dashed=0;verticalLabelPosition=bottom;verticalAlign=top;align=center;html=1;fontSize=12;fontStyle=0;aspect=fixed;shape=mxgraph.aws4.resourceIcon;resIcon=mxgraph.aws4.deep_learning_amis;strokeWidth=0;" parent="1" vertex="1">
          <mxGeometry x="687" y="188.88" width="90.12" height="90.12" as="geometry" />
        </mxCell>
        <mxCell id="L2uhkk1yuC7J8T29KFnI-15" value="&lt;b style=&quot;border-color: var(--border-color); color: rgb(51, 51, 51);&quot;&gt;&lt;font style=&quot;font-size: 16px;&quot;&gt;ML Models&lt;/font&gt;&lt;/b&gt;&lt;font style=&quot;font-size: 12px;&quot; color=&quot;#333333&quot;&gt;&lt;br&gt;&lt;/font&gt;" style="text;html=1;strokeColor=none;fillColor=none;align=center;verticalAlign=middle;whiteSpace=wrap;rounded=0;sketch=0;strokeWidth=3;fontColor=#99FFCC;" parent="1" vertex="1">
          <mxGeometry x="673" y="278" width="123.5" height="39.5" as="geometry" />
        </mxCell>
        <mxCell id="L2uhkk1yuC7J8T29KFnI-16" value="" style="endArrow=classic;html=1;rounded=0;strokeWidth=3;" parent="1" edge="1">
          <mxGeometry width="50" height="50" relative="1" as="geometry">
            <mxPoint x="561.5" y="244.25" as="sourcePoint" />
            <mxPoint x="615" y="245" as="targetPoint" />
          </mxGeometry>
        </mxCell>
        <mxCell id="L2uhkk1yuC7J8T29KFnI-18" value="" style="sketch=0;aspect=fixed;pointerEvents=1;shadow=0;dashed=0;html=1;strokeColor=default;labelPosition=center;verticalLabelPosition=bottom;verticalAlign=top;align=center;fillColor=none;shape=mxgraph.mscae.general.graph;fillStyle=auto;strokeWidth=2;" parent="1" vertex="1">
          <mxGeometry x="397.75" y="455.5" width="70" height="70" as="geometry" />
        </mxCell>
        <mxCell id="L2uhkk1yuC7J8T29KFnI-19" value="&lt;font style=&quot;&quot; color=&quot;#333333&quot;&gt;&lt;b style=&quot;&quot;&gt;&lt;font style=&quot;font-size: 16px;&quot;&gt;Compare Results&lt;/font&gt;&lt;/b&gt;&lt;br&gt;&lt;/font&gt;" style="text;html=1;strokeColor=none;fillColor=none;align=center;verticalAlign=middle;whiteSpace=wrap;rounded=0;sketch=0;strokeWidth=3;fontColor=#99FFCC;" parent="1" vertex="1">
          <mxGeometry x="374.75" y="541" width="116" height="30" as="geometry" />
        </mxCell>
        <mxCell id="L2uhkk1yuC7J8T29KFnI-20" value="" style="endArrow=classic;html=1;rounded=0;strokeWidth=3;" parent="1" edge="1">
          <mxGeometry width="50" height="50" relative="1" as="geometry">
            <mxPoint x="733" y="353" as="sourcePoint" />
            <mxPoint x="733" y="404" as="targetPoint" />
          </mxGeometry>
        </mxCell>
        <mxCell id="L2uhkk1yuC7J8T29KFnI-23" value="" style="shape=image;html=1;verticalAlign=top;verticalLabelPosition=bottom;labelBackgroundColor=#ffffff;imageAspect=0;aspect=fixed;image=https://cdn4.iconfinder.com/data/icons/evil-icons-user-interface/64/setting-128.png;sketch=0;fillStyle=auto;strokeColor=default;strokeWidth=2;fillColor=none;" parent="1" vertex="1">
          <mxGeometry x="427" y="223.25" width="25" height="25" as="geometry" />
        </mxCell>
        <mxCell id="L2uhkk1yuC7J8T29KFnI-24" value="" style="shape=image;html=1;verticalAlign=top;verticalLabelPosition=bottom;labelBackgroundColor=#ffffff;imageAspect=0;aspect=fixed;image=https://cdn4.iconfinder.com/data/icons/evil-icons-user-interface/64/setting-128.png;sketch=0;fillStyle=auto;strokeColor=default;strokeWidth=2;fillColor=none;" parent="1" vertex="1">
          <mxGeometry x="402" y="202" width="42" height="42" as="geometry" />
        </mxCell>
        <mxCell id="_CqftB7TEk2AvOw6r1CB-7" value="" style="sketch=0;points=[[0,0,0],[0.25,0,0],[0.5,0,0],[0.75,0,0],[1,0,0],[0,1,0],[0.25,1,0],[0.5,1,0],[0.75,1,0],[1,1,0],[0,0.25,0],[0,0.5,0],[0,0.75,0],[1,0.25,0],[1,0.5,0],[1,0.75,0]];outlineConnect=0;fontColor=#232F3E;gradientColor=#4AB29A;gradientDirection=north;fillColor=none;strokeColor=#333333;dashed=0;verticalLabelPosition=bottom;verticalAlign=top;align=center;html=1;fontSize=12;fontStyle=0;aspect=fixed;shape=mxgraph.aws4.resourceIcon;resIcon=mxgraph.aws4.comprehend;strokeWidth=5;" parent="1" vertex="1">
          <mxGeometry x="696.97" y="446.19000000000005" width="94.06" height="106.06" as="geometry" />
        </mxCell>
        <mxCell id="_CqftB7TEk2AvOw6r1CB-8" value="&lt;font style=&quot;&quot; color=&quot;#333333&quot;&gt;&lt;b&gt;&lt;font style=&quot;font-size: 16px;&quot;&gt;Explanation (XAI)&lt;/font&gt;&lt;/b&gt;&lt;br&gt;&lt;/font&gt;" style="text;html=1;strokeColor=none;fillColor=none;align=center;verticalAlign=middle;whiteSpace=wrap;rounded=0;sketch=0;strokeWidth=3;fontColor=#99FFCC;" parent="1" vertex="1">
          <mxGeometry x="690" y="548" width="104" height="30" as="geometry" />
        </mxCell>
        <mxCell id="_CqftB7TEk2AvOw6r1CB-9" value="&lt;div style=&quot;text-align: left;&quot;&gt;&lt;b style=&quot;font-size: 16px; color: rgb(51, 51, 51); background-color: initial;&quot;&gt;LIME&lt;/b&gt;&lt;/div&gt;&lt;font style=&quot;font-size: 16px;&quot; color=&quot;#333333&quot;&gt;&lt;div style=&quot;text-align: left;&quot;&gt;&lt;b style=&quot;background-color: initial;&quot;&gt;SHAP&lt;/b&gt;&lt;/div&gt;&lt;b&gt;&lt;div style=&quot;text-align: left;&quot;&gt;&lt;b style=&quot;background-color: initial;&quot;&gt;ANCHOR&lt;/b&gt;&lt;/div&gt;&lt;/b&gt;&lt;/font&gt;" style="text;html=1;strokeColor=default;fillColor=#B1DDF0;align=center;verticalAlign=middle;whiteSpace=wrap;rounded=0;sketch=0;strokeWidth=0;fontColor=#99FFCC;shadow=1;" parent="1" vertex="1">
          <mxGeometry x="901" y="450" width="223" height="119" as="geometry" />
        </mxCell>
        <mxCell id="_CqftB7TEk2AvOw6r1CB-4" value="&lt;div style=&quot;text-align: left;&quot;&gt;&lt;font color=&quot;#333333&quot;&gt;&lt;span style=&quot;font-size: 16px;&quot;&gt;&lt;b&gt;Logistic Regression&lt;/b&gt;&lt;/span&gt;&lt;/font&gt;&lt;/div&gt;&lt;div style=&quot;text-align: left;&quot;&gt;&lt;font color=&quot;#333333&quot;&gt;&lt;span style=&quot;font-size: 16px;&quot;&gt;&lt;b&gt;Support Vector Machine&lt;/b&gt;&lt;/span&gt;&lt;/font&gt;&lt;/div&gt;&lt;div style=&quot;text-align: left;&quot;&gt;&lt;font color=&quot;#333333&quot;&gt;&lt;span style=&quot;font-size: 16px;&quot;&gt;&lt;b&gt;Multinomial Navies Bayes&lt;/b&gt;&lt;/span&gt;&lt;/font&gt;&lt;/div&gt;&lt;div style=&quot;text-align: left;&quot;&gt;&lt;font color=&quot;#333333&quot;&gt;&lt;span style=&quot;font-size: 16px;&quot;&gt;&lt;b&gt;K-Nearest&amp;nbsp;&lt;/b&gt;&lt;/span&gt;&lt;/font&gt;&lt;b style=&quot;color: rgb(51, 51, 51); background-color: initial; font-size: 16px;&quot;&gt;Neighbors&lt;/b&gt;&lt;/div&gt;&lt;div style=&quot;text-align: left;&quot;&gt;&lt;span style=&quot;background-color: initial; font-size: 16px;&quot;&gt;&lt;font color=&quot;#333333&quot;&gt;&lt;b&gt;Decision&lt;/b&gt;&lt;/font&gt;&lt;/span&gt;&lt;b style=&quot;font-size: 16px; color: rgb(51, 51, 51); background-color: initial;&quot;&gt;&amp;nbsp;Tree&lt;/b&gt;&lt;/div&gt;&lt;div style=&quot;text-align: left;&quot;&gt;&lt;b style=&quot;font-size: 16px; color: rgb(51, 51, 51); background-color: initial;&quot;&gt;Random Forest&lt;/b&gt;&lt;/div&gt;" style="text;html=1;strokeColor=#B1DDF0;fillColor=#B1DDF0;align=center;verticalAlign=middle;whiteSpace=wrap;rounded=0;sketch=0;strokeWidth=0;fontColor=#99FFCC;shadow=1;" parent="1" vertex="1">
          <mxGeometry x="901" y="177" width="221.5" height="150.12" as="geometry" />
        </mxCell>
        <mxCell id="_CqftB7TEk2AvOw6r1CB-29" value="" style="endArrow=classic;html=1;rounded=0;strokeWidth=3;" parent="1" edge="1">
          <mxGeometry width="50" height="50" relative="1" as="geometry">
            <mxPoint x="614" y="520" as="sourcePoint" />
            <mxPoint x="559" y="520" as="targetPoint" />
          </mxGeometry>
        </mxCell>
        <mxCell id="_CqftB7TEk2AvOw6r1CB-33" value="" style="endArrow=classic;startArrow=classic;html=1;rounded=0;fontColor=#99FF99;exitX=1.02;exitY=0.578;exitDx=0;exitDy=0;exitPerimeter=0;" parent="1" edge="1">
          <mxGeometry width="50" height="50" relative="1" as="geometry">
            <mxPoint x="851.4012000000002" y="509.34067999999996" as="sourcePoint" />
            <mxPoint x="895" y="508.91" as="targetPoint" />
          </mxGeometry>
        </mxCell>
        <mxCell id="_CqftB7TEk2AvOw6r1CB-34" value="" style="endArrow=classic;startArrow=classic;html=1;rounded=0;fontColor=#99FF99;exitX=1.02;exitY=0.578;exitDx=0;exitDy=0;exitPerimeter=0;" parent="1" edge="1">
          <mxGeometry width="50" height="50" relative="1" as="geometry">
            <mxPoint x="850" y="254" as="sourcePoint" />
            <mxPoint x="894" y="254" as="targetPoint" />
          </mxGeometry>
        </mxCell>
        <mxCell id="_CqftB7TEk2AvOw6r1CB-37" value="" style="rounded=1;whiteSpace=wrap;html=1;labelBackgroundColor=#FFB570;strokeColor=#CDEEFE;strokeWidth=0;fontColor=#99FF99;fillColor=#C3E9F9;" parent="1" vertex="1">
          <mxGeometry x="522" y="-148" width="120" height="60" as="geometry" />
        </mxCell>
        <mxCell id="_CqftB7TEk2AvOw6r1CB-38" value="" style="rounded=1;whiteSpace=wrap;html=1;labelBackgroundColor=#FFB570;strokeColor=#CDEEFE;strokeWidth=0;fontColor=#99FF99;fillColor=#C3E9F9;" parent="1" vertex="1">
          <mxGeometry x="-332" y="363" width="120" height="60" as="geometry" />
        </mxCell>
        <mxCell id="_CqftB7TEk2AvOw6r1CB-39" value="" style="rounded=1;whiteSpace=wrap;html=1;labelBackgroundColor=#FFB570;strokeColor=#CDEEFE;strokeWidth=0;fontColor=#99FF99;fillColor=#C3E9F9;" parent="1" vertex="1">
          <mxGeometry x="1292" y="333" width="120" height="60" as="geometry" />
        </mxCell>
      </root>
    </mxGraphModel>
  </diagram>
  <diagram id="hN3Tj7d20WxHXnR6wAtY" name="Page-2">
    <mxGraphModel dx="1434" dy="756" grid="1" gridSize="10" guides="1" tooltips="1" connect="1" arrows="1" fold="1" page="1" pageScale="1" pageWidth="700" pageHeight="1000" math="0" shadow="0">
      <root>
        <mxCell id="0" />
        <mxCell id="1" parent="0" />
        <mxCell id="g4m8Td35BqeDXqIeln6w-1" value="" style="sketch=0;outlineConnect=0;fontColor=#232F3E;gradientColor=none;fillColor=#333333;strokeColor=none;dashed=0;verticalLabelPosition=bottom;verticalAlign=top;align=center;html=1;fontSize=12;fontStyle=0;aspect=fixed;pointerEvents=1;shape=mxgraph.aws4.documents;" vertex="1" parent="1">
          <mxGeometry x="40" y="160" width="64" height="78" as="geometry" />
        </mxCell>
        <mxCell id="g4m8Td35BqeDXqIeln6w-2" value="" style="sketch=0;outlineConnect=0;fontColor=#232F3E;gradientColor=none;fillColor=#333333;strokeColor=none;dashed=0;verticalLabelPosition=bottom;verticalAlign=top;align=center;html=1;fontSize=12;fontStyle=0;aspect=fixed;pointerEvents=1;shape=mxgraph.aws4.sagemaker_model;strokeWidth=3;" vertex="1" parent="1">
          <mxGeometry x="180.5" y="166.25" width="65.5" height="65.5" as="geometry" />
        </mxCell>
        <mxCell id="g4m8Td35BqeDXqIeln6w-3" value="" style="whiteSpace=wrap;html=1;aspect=fixed;sketch=0;strokeWidth=2;fontColor=#99FFCC;fillColor=#FFFFFF;gradientColor=#FFFFFF;" vertex="1" parent="1">
          <mxGeometry x="476" y="153.5" width="100" height="100" as="geometry" />
        </mxCell>
        <mxCell id="g4m8Td35BqeDXqIeln6w-4" value="" style="sketch=0;outlineConnect=0;fontColor=#232F3E;gradientColor=none;fillColor=#333333;strokeColor=none;dashed=0;verticalLabelPosition=bottom;verticalAlign=top;align=center;html=1;fontSize=12;fontStyle=0;aspect=fixed;pointerEvents=1;shape=mxgraph.aws4.sagemaker_train;" vertex="1" parent="1">
          <mxGeometry x="481.99" y="159.25" width="48.01" height="40" as="geometry" />
        </mxCell>
        <mxCell id="g4m8Td35BqeDXqIeln6w-5" value="" style="sketch=0;outlineConnect=0;fontColor=#232F3E;gradientColor=none;fillColor=#333333;strokeColor=none;dashed=0;verticalLabelPosition=bottom;verticalAlign=top;align=center;html=1;fontSize=12;fontStyle=0;aspect=fixed;pointerEvents=1;shape=mxgraph.aws4.iot_sitewise_asset_hierarchy;strokeWidth=12;" vertex="1" parent="1">
          <mxGeometry x="530" y="158.25" width="43" height="43" as="geometry" />
        </mxCell>
        <mxCell id="g4m8Td35BqeDXqIeln6w-6" value="" style="sketch=0;pointerEvents=1;shadow=0;dashed=0;html=1;strokeColor=none;fillColor=#505050;labelPosition=center;verticalLabelPosition=bottom;verticalAlign=top;outlineConnect=0;align=center;shape=mxgraph.office.users.user;strokeWidth=5;" vertex="1" parent="1">
          <mxGeometry x="630" y="181.75" width="50" height="58.25" as="geometry" />
        </mxCell>
        <mxCell id="g4m8Td35BqeDXqIeln6w-7" value="" style="shape=image;html=1;verticalAlign=top;verticalLabelPosition=bottom;labelBackgroundColor=#ffffff;imageAspect=0;aspect=fixed;image=https://cdn1.iconfinder.com/data/icons/office-icons-17/512/ilustracoes_04-14-128.png;sketch=0;strokeWidth=12;fontColor=#99FFCC;fillColor=#330033;gradientColor=#FFFFFF;" vertex="1" parent="1">
          <mxGeometry x="479" y="206.25" width="42.75" height="42.75" as="geometry" />
        </mxCell>
        <mxCell id="g4m8Td35BqeDXqIeln6w-8" value="" style="shape=image;html=1;verticalAlign=top;verticalLabelPosition=bottom;labelBackgroundColor=#ffffff;imageAspect=0;aspect=fixed;image=https://cdn3.iconfinder.com/data/icons/picons-social/57/03-twitter-128.png;sketch=0;strokeWidth=3;fontColor=#99FFCC;fillColor=#333333;gradientColor=#FFFFFF;" vertex="1" parent="1">
          <mxGeometry x="74" y="136.25" width="30" height="30" as="geometry" />
        </mxCell>
        <mxCell id="g4m8Td35BqeDXqIeln6w-9" value="&lt;font style=&quot;font-size: 12px;&quot; color=&quot;#333333&quot;&gt;&lt;b&gt;Twitter Dataset&lt;br&gt;&lt;/b&gt;&lt;br&gt;&lt;/font&gt;" style="text;html=1;strokeColor=none;fillColor=none;align=center;verticalAlign=middle;whiteSpace=wrap;rounded=0;sketch=0;strokeWidth=3;fontColor=#99FFCC;" vertex="1" parent="1">
          <mxGeometry x="20" y="258.5" width="116" height="30" as="geometry" />
        </mxCell>
        <mxCell id="g4m8Td35BqeDXqIeln6w-10" value="&lt;font style=&quot;font-size: 12px;&quot; color=&quot;#333333&quot;&gt;&lt;b&gt;Models&lt;/b&gt;&lt;br&gt;&lt;/font&gt;" style="text;html=1;strokeColor=none;fillColor=none;align=center;verticalAlign=middle;whiteSpace=wrap;rounded=0;sketch=0;strokeWidth=3;fontColor=#99FFCC;" vertex="1" parent="1">
          <mxGeometry x="158.25" y="255" width="116" height="30" as="geometry" />
        </mxCell>
        <mxCell id="g4m8Td35BqeDXqIeln6w-11" value="" style="shape=image;html=1;verticalAlign=top;verticalLabelPosition=bottom;labelBackgroundColor=#ffffff;imageAspect=0;aspect=fixed;image=https://cdn0.iconfinder.com/data/icons/phosphor-thin-vol-1/256/brackets-curly-thin-128.png;sketch=0;strokeWidth=1;fontSize=12;fontColor=#333333;fillColor=#333333;gradientColor=#FFFFFF;imageBackground=none;imageBorder=none;" vertex="1" parent="1">
          <mxGeometry x="149.25" y="139.5" width="128" height="128" as="geometry" />
        </mxCell>
        <mxCell id="g4m8Td35BqeDXqIeln6w-12" value="&lt;font style=&quot;font-size: 12px;&quot; color=&quot;#333333&quot;&gt;&lt;b&gt;Compare Result&lt;/b&gt;&lt;br&gt;&lt;/font&gt;" style="text;html=1;strokeColor=none;fillColor=none;align=center;verticalAlign=middle;whiteSpace=wrap;rounded=0;sketch=0;strokeWidth=3;fontColor=#99FFCC;" vertex="1" parent="1">
          <mxGeometry x="317" y="254" width="116" height="30" as="geometry" />
        </mxCell>
        <mxCell id="g4m8Td35BqeDXqIeln6w-13" value="&lt;font style=&quot;&quot; color=&quot;#333333&quot;&gt;&lt;b&gt;Explanation&lt;/b&gt;&lt;br&gt;&lt;/font&gt;" style="text;html=1;strokeColor=none;fillColor=none;align=center;verticalAlign=middle;whiteSpace=wrap;rounded=0;sketch=0;strokeWidth=3;fontColor=#99FFCC;" vertex="1" parent="1">
          <mxGeometry x="474" y="253.5" width="116" height="30" as="geometry" />
        </mxCell>
        <mxCell id="g4m8Td35BqeDXqIeln6w-14" value="" style="sketch=0;points=[[0,0,0],[0.25,0,0],[0.5,0,0],[0.75,0,0],[1,0,0],[0,1,0],[0.25,1,0],[0.5,1,0],[0.75,1,0],[1,1,0],[0,0.25,0],[0,0.5,0],[0,0.75,0],[1,0.25,0],[1,0.5,0],[1,0.75,0]];outlineConnect=0;fontColor=#232F3E;gradientColor=#333333;gradientDirection=north;fillColor=none;strokeColor=none;dashed=0;verticalLabelPosition=bottom;verticalAlign=top;align=center;html=1;fontSize=12;fontStyle=0;aspect=fixed;shape=mxgraph.aws4.resourceIcon;resIcon=mxgraph.aws4.lookout_for_equipment;strokeWidth=1;" vertex="1" parent="1">
          <mxGeometry x="530" y="206.5" width="41.75" height="41.75" as="geometry" />
        </mxCell>
        <mxCell id="g4m8Td35BqeDXqIeln6w-15" value="" style="endArrow=classic;html=1;rounded=0;strokeWidth=2;fontSize=12;fontColor=#333333;" edge="1" parent="1">
          <mxGeometry width="50" height="50" relative="1" as="geometry">
            <mxPoint x="111" y="201.5" as="sourcePoint" />
            <mxPoint x="147" y="201" as="targetPoint" />
          </mxGeometry>
        </mxCell>
        <mxCell id="g4m8Td35BqeDXqIeln6w-16" value="" style="endArrow=classic;html=1;rounded=0;strokeWidth=2;fontSize=12;fontColor=#333333;" edge="1" parent="1">
          <mxGeometry width="50" height="50" relative="1" as="geometry">
            <mxPoint x="279" y="203.5" as="sourcePoint" />
            <mxPoint x="390" y="140" as="targetPoint" />
            <Array as="points">
              <mxPoint x="320" y="140" />
            </Array>
          </mxGeometry>
        </mxCell>
        <mxCell id="g4m8Td35BqeDXqIeln6w-17" value="" style="endArrow=classic;html=1;rounded=0;strokeWidth=2;fontSize=12;fontColor=#333333;entryX=0;entryY=0.5;entryDx=0;entryDy=0;" edge="1" parent="1">
          <mxGeometry width="50" height="50" relative="1" as="geometry">
            <mxPoint x="428" y="204.5" as="sourcePoint" />
            <mxPoint x="469" y="204.5" as="targetPoint" />
          </mxGeometry>
        </mxCell>
        <mxCell id="g4m8Td35BqeDXqIeln6w-18" value="" style="endArrow=classic;html=1;rounded=0;strokeWidth=2;fontSize=12;fontColor=#333333;entryX=0;entryY=0.5;entryDx=0;entryDy=0;" edge="1" parent="1">
          <mxGeometry width="50" height="50" relative="1" as="geometry">
            <mxPoint x="581" y="204.5" as="sourcePoint" />
            <mxPoint x="622" y="204.5" as="targetPoint" />
          </mxGeometry>
        </mxCell>
        <mxCell id="g4m8Td35BqeDXqIeln6w-19" value="&lt;font style=&quot;&quot; color=&quot;#333333&quot;&gt;&lt;b&gt;User&lt;/b&gt;&lt;br&gt;&lt;/font&gt;" style="text;html=1;strokeColor=none;fillColor=none;align=center;verticalAlign=middle;whiteSpace=wrap;rounded=0;sketch=0;strokeWidth=3;fontColor=#99FFCC;" vertex="1" parent="1">
          <mxGeometry x="595" y="253" width="116" height="30" as="geometry" />
        </mxCell>
        <mxCell id="g4m8Td35BqeDXqIeln6w-20" value="" style="points=[[0,0,0],[0.25,0,0],[0.5,0,0],[0.75,0,0],[1,0,0],[0,1,0],[0.25,1,0],[0.5,1,0],[0.75,1,0],[1,1,0],[0,0.25,0],[0,0.5,0],[0,0.75,0],[1,0.25,0],[1,0.5,0],[1,0.75,0]];outlineConnect=0;fontColor=#232F3E;gradientColor=default;gradientDirection=north;fillColor=none;strokeColor=#333333;dashed=0;verticalLabelPosition=bottom;verticalAlign=top;align=center;html=1;fontSize=12;fontStyle=0;aspect=fixed;shape=mxgraph.aws4.resourceIcon;resIcon=mxgraph.aws4.forecast;strokeWidth=5;" vertex="1" parent="1">
          <mxGeometry x="317" y="153.5" width="108" height="108" as="geometry" />
        </mxCell>
      </root>
    </mxGraphModel>
  </diagram>
  <diagram id="rZJCkg6r3CDZFr1sDhBM" name="Page-3">
    <mxGraphModel dx="1434" dy="756" grid="1" gridSize="10" guides="1" tooltips="1" connect="1" arrows="1" fold="1" page="1" pageScale="1" pageWidth="700" pageHeight="1000" math="0" shadow="0">
      <root>
        <mxCell id="0" />
        <mxCell id="1" parent="0" />
        <mxCell id="i59IYl1q_kCmqsqS3B3G-1" value="" style="whiteSpace=wrap;html=1;aspect=fixed;strokeColor=#82b366;strokeWidth=5;fillColor=#d5e8d4;fillStyle=solid;sketch=1;curveFitting=1;jiggle=2;" vertex="1" parent="1">
          <mxGeometry x="719.5" y="441.5" width="127" height="127" as="geometry" />
        </mxCell>
        <mxCell id="i59IYl1q_kCmqsqS3B3G-2" value="" style="shape=image;html=1;verticalAlign=top;verticalLabelPosition=bottom;labelBackgroundColor=#ffffff;imageAspect=0;aspect=fixed;image=https://cdn0.iconfinder.com/data/icons/thin-line-icons-for-seo-and-development-1/64/Programming_Development_analysis-128.png;strokeWidth=3;perimeterSpacing=0;" vertex="1" parent="1">
          <mxGeometry x="545" y="448" width="110" height="110" as="geometry" />
        </mxCell>
        <mxCell id="i59IYl1q_kCmqsqS3B3G-3" value="" style="html=1;shape=mxgraph.flowchart.annotation_2;align=left;labelPosition=right;strokeWidth=5;fillColor=#f8cecc;strokeColor=#b85450;sketch=1;curveFitting=1;jiggle=2;" vertex="1" parent="1">
          <mxGeometry x="336.25" y="452.5" width="50" height="100" as="geometry" />
        </mxCell>
        <mxCell id="i59IYl1q_kCmqsqS3B3G-4" value="" style="html=1;shape=mxgraph.flowchart.annotation_2;align=left;labelPosition=right;strokeWidth=5;fillColor=#f8cecc;strokeColor=#b85450;rotation=-180;sketch=1;curveFitting=1;jiggle=2;" vertex="1" parent="1">
          <mxGeometry x="433" y="452" width="50" height="100" as="geometry" />
        </mxCell>
        <mxCell id="i59IYl1q_kCmqsqS3B3G-5" value="" style="sketch=0;points=[[0,0,0],[0.25,0,0],[0.5,0,0],[0.75,0,0],[1,0,0],[0,1,0],[0.25,1,0],[0.5,1,0],[0.75,1,0],[1,1,0],[0,0.25,0],[0,0.5,0],[0,0.75,0],[1,0.25,0],[1,0.5,0],[1,0.75,0]];outlineConnect=0;fontColor=#232F3E;gradientColor=#4AB29A;gradientDirection=north;fillColor=none;strokeColor=#333333;dashed=0;verticalLabelPosition=bottom;verticalAlign=top;align=center;html=1;fontSize=12;fontStyle=0;aspect=fixed;shape=mxgraph.aws4.resourceIcon;resIcon=mxgraph.aws4.fraud_detector;strokeWidth=5;" vertex="1" parent="1">
          <mxGeometry x="782.5899999999999" y="450" width="58.41" height="58.41" as="geometry" />
        </mxCell>
        <mxCell id="i59IYl1q_kCmqsqS3B3G-6" value="" style="sketch=0;points=[[0,0,0],[0.25,0,0],[0.5,0,0],[0.75,0,0],[1,0,0],[0,1,0],[0.25,1,0],[0.5,1,0],[0.75,1,0],[1,1,0],[0,0.25,0],[0,0.5,0],[0,0.75,0],[1,0.25,0],[1,0.5,0],[1,0.75,0]];outlineConnect=0;gradientDirection=north;fillColor=none;strokeColor=#333333;dashed=0;verticalLabelPosition=bottom;verticalAlign=top;align=center;html=1;fontSize=12;fontStyle=0;aspect=fixed;shape=mxgraph.aws4.resourceIcon;resIcon=mxgraph.aws4.lookout_for_equipment;strokeWidth=5;" vertex="1" parent="1">
          <mxGeometry x="726.5" y="507" width="58" height="58" as="geometry" />
        </mxCell>
        <mxCell id="i59IYl1q_kCmqsqS3B3G-7" value="" style="sketch=0;outlineConnect=0;fontColor=#232F3E;gradientColor=none;fillColor=#333333;strokeColor=none;dashed=0;verticalLabelPosition=bottom;verticalAlign=top;align=center;html=1;fontSize=12;fontStyle=0;aspect=fixed;pointerEvents=1;shape=mxgraph.aws4.sagemaker_train;strokeWidth=5;" vertex="1" parent="1">
          <mxGeometry x="728" y="451.99999999999994" width="55" height="45.83" as="geometry" />
        </mxCell>
        <mxCell id="i59IYl1q_kCmqsqS3B3G-8" value="" style="points=[[0,0,0],[0.25,0,0],[0.5,0,0],[0.75,0,0],[1,0,0],[0,1,0],[0.25,1,0],[0.5,1,0],[0.75,1,0],[1,1,0],[0,0.25,0],[0,0.5,0],[0,0.75,0],[1,0.25,0],[1,0.5,0],[1,0.75,0]];outlineConnect=0;fontColor=#232F3E;gradientColor=none;gradientDirection=north;fillColor=none;strokeColor=#333333;dashed=0;verticalLabelPosition=bottom;verticalAlign=top;align=center;html=1;fontSize=12;fontStyle=0;aspect=fixed;shape=mxgraph.aws4.resourceIcon;resIcon=mxgraph.aws4.deep_learning_amis;strokeWidth=5;" vertex="1" parent="1">
          <mxGeometry x="354" y="446.5" width="110" height="110" as="geometry" />
        </mxCell>
        <mxCell id="i59IYl1q_kCmqsqS3B3G-9" value="" style="sketch=0;points=[[0,0,0],[0.25,0,0],[0.5,0,0],[0.75,0,0],[1,0,0],[0,1,0],[0.25,1,0],[0.5,1,0],[0.75,1,0],[1,1,0],[0,0.25,0],[0,0.5,0],[0,0.75,0],[1,0.25,0],[1,0.5,0],[1,0.75,0]];outlineConnect=0;fontColor=#232F3E;gradientColor=#4AB29A;gradientDirection=north;fillColor=none;strokeColor=#333333;dashed=0;verticalLabelPosition=bottom;verticalAlign=top;align=center;html=1;fontSize=12;fontStyle=0;aspect=fixed;shape=mxgraph.aws4.resourceIcon;resIcon=mxgraph.aws4.comprehend;strokeWidth=5;" vertex="1" parent="1">
          <mxGeometry x="784.5" y="505" width="62" height="62" as="geometry" />
        </mxCell>
        <mxCell id="i59IYl1q_kCmqsqS3B3G-10" value="&lt;font style=&quot;font-size: 12px;&quot; color=&quot;#333333&quot;&gt;&lt;b&gt;Compare Result&lt;/b&gt;&lt;br&gt;&lt;/font&gt;" style="text;html=1;strokeColor=none;fillColor=none;align=center;verticalAlign=middle;whiteSpace=wrap;rounded=0;sketch=0;strokeWidth=3;fontColor=#99FFCC;" vertex="1" parent="1">
          <mxGeometry x="544" y="557.5" width="116" height="30" as="geometry" />
        </mxCell>
        <mxCell id="i59IYl1q_kCmqsqS3B3G-11" value="&lt;font style=&quot;&quot; color=&quot;#333333&quot;&gt;&lt;b&gt;Explanation&lt;/b&gt;&lt;br&gt;&lt;/font&gt;" style="text;html=1;strokeColor=none;fillColor=none;align=center;verticalAlign=middle;whiteSpace=wrap;rounded=0;sketch=0;strokeWidth=3;fontColor=#99FFCC;" vertex="1" parent="1">
          <mxGeometry x="725" y="570" width="116" height="30" as="geometry" />
        </mxCell>
        <mxCell id="i59IYl1q_kCmqsqS3B3G-12" value="." style="shape=image;html=1;verticalAlign=top;verticalLabelPosition=bottom;labelBackgroundColor=#ffffff;imageAspect=0;aspect=fixed;image=https://cdn1.iconfinder.com/data/icons/user-pictures/100/male3-128.png;fillStyle=solid;strokeColor=#FF0000;sketch=1;curveFitting=1;jiggle=2;" vertex="1" parent="1">
          <mxGeometry x="911" y="456.5" width="93.5" height="93.5" as="geometry" />
        </mxCell>
        <mxCell id="i59IYl1q_kCmqsqS3B3G-13" value="" style="html=1;outlineConnect=0;whiteSpace=wrap;fillColor=#AFFFAF;shape=mxgraph.archimate3.process;fillStyle=solid;strokeColor=#FF0000;sketch=1;curveFitting=1;jiggle=2;" vertex="1" parent="1">
          <mxGeometry x="118" y="490" width="52" height="30" as="geometry" />
        </mxCell>
        <mxCell id="i59IYl1q_kCmqsqS3B3G-14" value="&lt;b style=&quot;border-color: var(--border-color); color: rgb(51, 51, 51);&quot;&gt;Models&lt;/b&gt;&lt;font style=&quot;font-size: 12px;&quot; color=&quot;#333333&quot;&gt;&lt;br&gt;&lt;/font&gt;" style="text;html=1;strokeColor=none;fillColor=none;align=center;verticalAlign=middle;whiteSpace=wrap;rounded=0;sketch=0;strokeWidth=3;fontColor=#99FFCC;" vertex="1" parent="1">
          <mxGeometry x="354" y="564" width="116" height="30" as="geometry" />
        </mxCell>
        <mxCell id="i59IYl1q_kCmqsqS3B3G-15" value="" style="html=1;outlineConnect=0;whiteSpace=wrap;fillColor=#AFFFAF;shape=mxgraph.archimate3.process;fillStyle=solid;strokeColor=#FF0000;sketch=1;curveFitting=1;jiggle=2;" vertex="1" parent="1">
          <mxGeometry x="277.25" y="487.5" width="52" height="30" as="geometry" />
        </mxCell>
        <mxCell id="i59IYl1q_kCmqsqS3B3G-16" value="" style="html=1;outlineConnect=0;whiteSpace=wrap;fillColor=#AFFFAF;shape=mxgraph.archimate3.process;fillStyle=solid;strokeColor=#FF0000;sketch=1;curveFitting=1;jiggle=2;" vertex="1" parent="1">
          <mxGeometry x="495" y="487.5" width="52" height="30" as="geometry" />
        </mxCell>
        <mxCell id="i59IYl1q_kCmqsqS3B3G-17" value="" style="html=1;outlineConnect=0;whiteSpace=wrap;fillColor=#AFFFAF;shape=mxgraph.archimate3.process;fillStyle=solid;strokeColor=#FF0000;sketch=1;curveFitting=1;jiggle=2;" vertex="1" parent="1">
          <mxGeometry x="652.25" y="486.5" width="52" height="30" as="geometry" />
        </mxCell>
        <mxCell id="i59IYl1q_kCmqsqS3B3G-18" value="" style="html=1;outlineConnect=0;whiteSpace=wrap;fillColor=#AFFFAF;shape=mxgraph.archimate3.process;fillStyle=solid;strokeColor=#FF0000;sketch=1;curveFitting=1;jiggle=2;" vertex="1" parent="1">
          <mxGeometry x="854.25" y="483" width="52" height="30" as="geometry" />
        </mxCell>
        <mxCell id="i59IYl1q_kCmqsqS3B3G-19" value="" style="shape=image;html=1;verticalAlign=top;verticalLabelPosition=bottom;labelBackgroundColor=#ffffff;imageAspect=0;aspect=fixed;image=https://cdn0.iconfinder.com/data/icons/thin-line-icons-for-seo-and-development-1/64/Programming_Development_analysis-128.png;dashed=1;sketch=0;strokeColor=default;strokeWidth=7;fillColor=default;" vertex="1" parent="1">
          <mxGeometry x="1110" y="438" width="128" height="128" as="geometry" />
        </mxCell>
        <mxCell id="i59IYl1q_kCmqsqS3B3G-20" value="" style="shape=image;html=1;verticalAlign=top;verticalLabelPosition=bottom;labelBackgroundColor=#ffffff;imageAspect=0;aspect=fixed;image=https://cdn0.iconfinder.com/data/icons/business-startup-10/50/60-128.png;dashed=1;sketch=0;strokeColor=default;strokeWidth=0;fillColor=default;" vertex="1" parent="1">
          <mxGeometry x="1070" y="283" width="128" height="128" as="geometry" />
        </mxCell>
      </root>
    </mxGraphModel>
  </diagram>
</mxfile>
